<svg aria-hidden="true" style="position: absolute; width: 0; height: 0; overflow: hidden;" version="1.1" xmlns="http://www.w3.org/2000/svg" xmlns:xlink="http://www.w3.org/1999/xlink">
<defs>
<symbol id="icon-elipse" viewBox="0 0 30 32">
<path d="M29.867 15.322c0 8.258-6.686 14.953-14.933 14.953s-14.933-6.694-14.933-14.953c0-8.258 6.686-14.953 14.933-14.953s14.933 6.694 14.933 14.953z"></path>
</symbol>
<symbol id="icon-youtube" viewBox="0 0 32 32">
<path d="M26.389 7.22c1.147 0.307 2.053 1.215 2.361 2.361 0.567 2.088 0.583 6.419 0.583 6.419s0 4.347-0.565 6.419c-0.32 1.153-1.209 2.042-2.338 2.357l-0.024 0.006c-2.071 0.564-10.407 0.564-10.407 0.564s-8.336 0-10.407-0.564c-1.152-0.32-2.042-1.21-2.356-2.339l-0.006-0.024c-0.565-2.088-0.565-6.419-0.565-6.419s0-4.331 0.547-6.4c0.309-1.147 1.216-2.055 2.363-2.363 2.072-0.565 10.407-0.583 10.407-0.583s8.336 0 10.407 0.565zM20.245 16l-6.916 4.005v-8.011l6.916 4.005z"></path>
</symbol>
<symbol id="icon-arrow-submit" viewBox="0 0 32 32">
<path stroke-linejoin="miter" stroke-linecap="butt" stroke-miterlimit="4" stroke-width="2.4615" d="M0 21.228h28.923l-9.231-11.092"></path>
</symbol>
<symbol id="icon-facebook" viewBox="0 0 32 32">
<path d="M29.333 16.080c0-7.407-5.969-13.413-13.333-13.413s-13.333 6.005-13.333 13.413c0 6.697 4.875 12.247 11.249 13.253v-9.373h-3.383v-3.88h3.384v-2.955c0-3.361 1.991-5.22 5.037-5.22 1.457 0 2.984 0.263 2.984 0.263v3.301h-1.683c-1.656 0-2.171 1.035-2.171 2.096v2.516h3.697l-0.591 3.877h-3.107v9.375c6.373-1.007 11.248-6.556 11.248-13.253z"></path>
</symbol>
<symbol id="icon-instagram" viewBox="0 0 32 32">
<path d="M16 4c-3.259 0-3.667 0.013-4.947 0.072-1.279 0.059-2.151 0.261-2.915 0.559-0.8 0.3-1.525 0.773-2.125 1.384-0.609 0.6-1.083 1.324-1.384 2.124-0.295 0.764-0.499 1.637-0.557 2.915-0.057 1.28-0.072 1.687-0.072 4.947s0.013 3.667 0.072 4.947c0.059 1.279 0.261 2.151 0.559 2.915 0.3 0.8 0.773 1.525 1.384 2.125 0.6 0.611 1.324 1.083 2.124 1.384 0.764 0.296 1.636 0.499 2.915 0.557 1.28 0.059 1.688 0.072 4.947 0.072s3.667-0.013 4.947-0.072c1.279-0.059 2.151-0.261 2.915-0.559 0.8-0.3 1.525-0.773 2.125-1.384 0.611-0.6 1.083-1.324 1.384-2.124 0.296-0.764 0.499-1.636 0.557-2.915 0.059-1.28 0.072-1.688 0.072-4.947s-0.013-3.667-0.072-4.947c-0.059-1.279-0.261-2.151-0.559-2.915-0.318-0.832-0.788-1.541-1.382-2.125l-0.001-0.001c-0.584-0.595-1.293-1.066-2.084-1.37l-0.040-0.014c-0.764-0.295-1.637-0.499-2.915-0.557-1.281-0.057-1.688-0.072-4.948-0.072zM16 6.163c3.204 0 3.584 0.012 4.849 0.069 1.169 0.053 1.805 0.248 2.228 0.413 0.56 0.217 0.96 0.477 1.38 0.897s0.68 0.82 0.897 1.38c0.164 0.423 0.36 1.059 0.413 2.227 0.057 1.267 0.069 1.647 0.069 4.851s-0.012 3.584-0.069 4.849c-0.053 1.169-0.248 1.805-0.413 2.228-0.192 0.521-0.499 0.993-0.897 1.38-0.387 0.399-0.859 0.705-1.38 0.897-0.423 0.164-1.059 0.36-2.227 0.413-1.267 0.057-1.645 0.069-4.851 0.069s-3.584-0.012-4.849-0.069c-1.169-0.053-1.805-0.248-2.228-0.413-0.541-0.203-1.002-0.509-1.379-0.896l-0.001-0.001c-0.389-0.378-0.694-0.839-0.889-1.354l-0.008-0.026c-0.164-0.423-0.36-1.059-0.413-2.227-0.057-1.267-0.069-1.647-0.069-4.851s0.012-3.584 0.069-4.849c0.053-1.169 0.248-1.805 0.413-2.228 0.217-0.56 0.477-0.96 0.897-1.38 0.387-0.399 0.859-0.705 1.38-0.897 0.423-0.164 1.059-0.36 2.227-0.413 1.267-0.057 1.647-0.069 4.851-0.069z"></path>
<path d="M16 20.004c-2.211 0-4.003-1.792-4.003-4.003s1.792-4.003 4.003-4.003v0c2.211 0 4.003 1.792 4.003 4.003s-1.792 4.003-4.003 4.003v0zM16 9.832c-3.406 0-6.168 2.761-6.168 6.168s2.761 6.168 6.168 6.168v0c3.407 0 6.168-2.761 6.168-6.168s-2.761-6.168-6.168-6.168v0zM23.963 9.72c0 0.805-0.653 1.458-1.458 1.458s-1.458-0.653-1.458-1.458v0c0-0.805 0.653-1.458 1.458-1.458s1.458 0.653 1.458 1.458v0z"></path>
</symbol>
<symbol id="icon-tiktok" viewBox="0 0 32 32">
<path d="M24.153 8.012c-1.756-1.156-2.9-3.117-2.904-5.345v-0.001h-4.585l-0.007 18.373c-0.081 2.063-1.771 3.706-3.846 3.709h-0c-2.128-0.002-3.852-1.726-3.853-3.853v-0c0.002-2.128 1.726-3.852 3.853-3.855h0c0.397 0 0.777 0.065 1.137 0.177v-4.68c-0.34-0.051-0.734-0.081-1.135-0.083h-0.002c-4.659 0.005-8.434 3.781-8.439 8.44v0c0.001 2.847 1.414 5.365 3.576 6.89l0.027 0.018c1.344 0.957 3.020 1.529 4.829 1.529 0.002 0 0.005 0 0.007 0h-0c4.658-0.005 8.433-3.78 8.439-8.438v-9.316c1.797 1.291 4 2.051 6.379 2.051v-4.584c-1.28 0-2.473-0.381-3.475-1.033z"></path>
</symbol>
<symbol id="icon-arrow-link" viewBox="0 0 32 32">
<path stroke-linejoin="round" stroke-linecap="round" stroke-miterlimit="4" stroke-width="2" d="M6.667 16h18.667M16 6.667l9.333 9.333-9.333 9.333"></path>
</symbol>
</defs>
</svg>
